# xmcd CD database file
#
# Track frame offsets:
#	150
#	19350
#	40067
#	65455
#	85425
#	106767
#	125832
#	148567
#	173455
#	194005
#	214175
#	234100
#
# Disc length: 3332 seconds
#
# Revision: 0
# Processed by: cddbd v1.5PL3 Copyright (c) Steve Scherf et al.
# Submitted via: CDex 1.51
#
DISCID=a50d020c
DTITLE=Carlos Oliva y Los Sobrinas del Juez - Yayabo
DYEAR=1900
DGENRE=Salsa
TTITLE0=vehicle - tu carrito
TTITLE1=a la hora de la telenova
TTITLE2=corazon partio
TTITLE3=como olvidarme de ti
TTITLE4=mamacita
TTITLE5=besitos de coco
TTITLE6=mosaico de boleros
TTITLE7=con una lata y un palo
TTITLE8=slorioso san antonio
TTITLE9=dollar whine
TTITLE10=yayado - conga yayabera (party version)
TTITLE11=yayado - conga yayabera (radio version)
EXTD=
EXTT0=
EXTT1=
EXTT2=
EXTT3=
EXTT4=
EXTT5=
EXTT6=
EXTT7=
EXTT8=
EXTT9=
EXTT10=
EXTT11=
PLAYORDER=
